<?xml version="1.0" encoding="utf-8"?>
<!-- Generator: Adobe Illustrator 27.0.1, SVG Export Plug-In . SVG Version: 6.00 Build 0)  -->
<svg version="1.1" id="Capa_1" xmlns="http://www.w3.org/2000/svg" xmlns:xlink="http://www.w3.org/1999/xlink" x="0px" y="0px"
	 viewBox="0 0 60 60" style="enable-background:new 0 0 60 60;" xml:space="preserve">
<style type="text/css">
	.st0{fill:#FFFFFF;}
</style>
<g>
	<path class="st0" d="M30.04,48.33c-5.76,0-11.53,0.01-17.29,0c-2.46-0.01-4-1.86-3.17-3.76c0.49-1.13,1.65-1.77,3.3-1.77
		c3.08-0.01,6.16,0,9.24,0c8.19,0,16.38-0.01,24.57,0.01c0.68,0,1.39,0.06,2.02,0.25c1.28,0.4,2.09,1.72,1.89,2.86
		c-0.24,1.38-1.45,2.37-3.07,2.41c-1.99,0.04-3.99,0.01-5.98,0.01C37.73,48.33,33.88,48.33,30.04,48.33z"/>
	<path class="st0" d="M30.13,11.67c5.73,0,11.45,0,17.18,0c1.44,0,2.53,0.55,3.09,1.75c0.51,1.09,0.22,2.09-0.67,2.94
		c-0.75,0.71-1.74,0.86-2.79,0.85c-6.16-0.01-12.32,0-18.48,0c-4.97,0-9.93,0-14.9,0c-0.29,0-0.58,0.01-0.87,0
		c-1.96-0.07-3.35-1.23-3.33-2.79c0.02-1.58,1.42-2.74,3.38-2.74C18.53,11.66,24.33,11.67,30.13,11.67z"/>
	<path class="st0" d="M29.99,27.27c5.8,0,11.6-0.01,17.39,0.01c2.33,0.01,3.83,1.82,3.04,3.66c-0.46,1.08-1.36,1.74-2.7,1.78
		c-1.27,0.04-2.54,0.02-3.8,0.02c-10.26,0-20.51,0-30.77-0.01c-0.57,0-1.17-0.01-1.71-0.16c-1.41-0.4-2.29-1.72-2.06-2.94
		c0.26-1.39,1.47-2.34,3.1-2.34C18.32,27.26,24.16,27.27,29.99,27.27z"/>
</g>
</svg>
